<?xml version="1.0" encoding="UTF-8" standalone="no"?>
<!DOCTYPE svg PUBLIC "-//W3C//DTD SVG 1.1//EN"
 "http://www.w3.org/Graphics/SVG/1.1/DTD/svg11.dtd">
<!-- Generated by graphviz version 2.47.0 (20210316.0004)
 -->
<!-- Title: dependencies Pages: 1 -->
<svg width="1266pt" height="211pt"
 viewBox="0.00 0.00 1266.00 211.00" xmlns="http://www.w3.org/2000/svg" xmlns:xlink="http://www.w3.org/1999/xlink">
<g id="graph0" class="graph" transform="scale(1 1) rotate(0) translate(4 207)">
<title>dependencies</title>
<polygon fill="white" stroke="transparent" points="-4,4 -4,-207 1262,-207 1262,4 -4,4"/>
<text text-anchor="start" x="608.01" y="-42.4" font-family="Times-12" font-weight="bold" font-size="14.00">Legend</text>
<polygon fill="#ffffb3" stroke="transparent" points="395,-10 395,-30 415,-30 415,-10 395,-10"/>
<text text-anchor="start" x="418.63" y="-15.4" font-family="Times-12" font-size="14.00"> &#160;Declarations</text>
<polygon fill="#8dd3c7" stroke="transparent" points="508,-10 508,-30 528,-30 528,-10 508,-10"/>
<text text-anchor="start" x="531.73" y="-15.4" font-family="Times-12" font-size="14.00"> &#160;Module</text>
<polygon fill="#80b1d3" stroke="transparent" points="594,-10 594,-30 614,-30 614,-10 594,-10"/>
<text text-anchor="start" x="617.78" y="-15.4" font-family="Times-12" font-size="14.00"> &#160;Bootstrap</text>
<polygon fill="#fdb462" stroke="transparent" points="691,-10 691,-30 711,-30 711,-10 691,-10"/>
<text text-anchor="start" x="714.67" y="-15.4" font-family="Times-12" font-size="14.00"> &#160;Providers</text>
<polygon fill="#fb8072" stroke="transparent" points="787,-10 787,-30 807,-30 807,-10 787,-10"/>
<text text-anchor="start" x="810.73" y="-15.4" font-family="Times-12" font-size="14.00"> &#160;Exports</text>
<g id="clust1" class="cluster">
<title>cluster_CoreModule</title>
<polygon fill="none" stroke="black" stroke-dasharray="1,5" points="8,-70 8,-195 1250,-195 1250,-70 8,-70"/>
</g>
<g id="clust6" class="cluster">
<title>cluster_CoreModule_providers</title>
<polygon fill="none" stroke="black" points="16,-78 16,-130 1242,-130 1242,-78 16,-78"/>
</g>
<!-- ApiService -->
<g id="node1" class="node">
<title>ApiService</title>
<ellipse fill="#fdb462" stroke="black" cx="1180" cy="-104" rx="54.45" ry="18"/>
<text text-anchor="middle" x="1180" y="-99.8" font-family="Times,serif" font-size="14.00">ApiService</text>
</g>
<!-- CoreModule -->
<g id="node9" class="node">
<title>CoreModule</title>
<polygon fill="#8dd3c7" stroke="black" points="631.26,-187 628.26,-191 607.26,-191 604.26,-187 544.74,-187 544.74,-151 631.26,-151 631.26,-187"/>
<text text-anchor="middle" x="588" y="-164.8" font-family="Times,serif" font-size="14.00">CoreModule</text>
</g>
<!-- ApiService&#45;&gt;CoreModule -->
<g id="edge1" class="edge">
<title>ApiService&#45;&gt;CoreModule</title>
<path fill="none" stroke="black" d="M1180,-122.29C1180,-144.21 1180,-178 1180,-178 1180,-178 641.53,-178 641.53,-178"/>
<polygon fill="black" stroke="black" points="641.53,-174.5 631.53,-178 641.53,-181.5 641.53,-174.5"/>
</g>
<!-- ArticlesService -->
<g id="node2" class="node">
<title>ArticlesService</title>
<ellipse fill="#fdb462" stroke="black" cx="1037" cy="-104" rx="70.62" ry="18"/>
<text text-anchor="middle" x="1037" y="-99.8" font-family="Times,serif" font-size="14.00">ArticlesService</text>
</g>
<!-- ArticlesService&#45;&gt;CoreModule -->
<g id="edge2" class="edge">
<title>ArticlesService&#45;&gt;CoreModule</title>
<path fill="none" stroke="black" d="M1037,-122.11C1037,-141.34 1037,-169 1037,-169 1037,-169 641.46,-169 641.46,-169"/>
<polygon fill="black" stroke="black" points="641.46,-165.5 631.46,-169 641.46,-172.5 641.46,-165.5"/>
</g>
<!-- CommentsService -->
<g id="node3" class="node">
<title>CommentsService</title>
<ellipse fill="#fdb462" stroke="black" cx="867" cy="-104" rx="81.68" ry="18"/>
<text text-anchor="middle" x="867" y="-99.8" font-family="Times,serif" font-size="14.00">CommentsService</text>
</g>
<!-- CommentsService&#45;&gt;CoreModule -->
<g id="edge3" class="edge">
<title>CommentsService&#45;&gt;CoreModule</title>
<path fill="none" stroke="black" d="M867,-122.03C867,-138.4 867,-160 867,-160 867,-160 641.29,-160 641.29,-160"/>
<polygon fill="black" stroke="black" points="641.29,-156.5 631.29,-160 641.29,-163.5 641.29,-156.5"/>
</g>
<!-- HttpTokenInterceptor -->
<g id="node4" class="node">
<title>HttpTokenInterceptor</title>
<ellipse fill="#fdb462" stroke="black" cx="672" cy="-104" rx="95.47" ry="18"/>
<text text-anchor="middle" x="672" y="-99.8" font-family="Times,serif" font-size="14.00">HttpTokenInterceptor</text>
</g>
<!-- HttpTokenInterceptor&#45;&gt;CoreModule -->
<g id="edge4" class="edge">
<title>HttpTokenInterceptor&#45;&gt;CoreModule</title>
<path fill="none" stroke="black" d="M604.07,-116.84C604.07,-116.84 604.07,-140.52 604.07,-140.52"/>
<polygon fill="black" stroke="black" points="600.57,-140.52 604.07,-150.52 607.57,-140.52 600.57,-140.52"/>
</g>
<!-- JwtService -->
<g id="node5" class="node">
<title>JwtService</title>
<ellipse fill="#fdb462" stroke="black" cx="505" cy="-104" rx="53.31" ry="18"/>
<text text-anchor="middle" x="505" y="-99.8" font-family="Times,serif" font-size="14.00">JwtService</text>
</g>
<!-- JwtService&#45;&gt;CoreModule -->
<g id="edge5" class="edge">
<title>JwtService&#45;&gt;CoreModule</title>
<path fill="none" stroke="black" d="M551.51,-113.04C551.51,-113.04 551.51,-140.96 551.51,-140.96"/>
<polygon fill="black" stroke="black" points="548.01,-140.96 551.51,-150.96 555.01,-140.96 548.01,-140.96"/>
</g>
<!-- ProfilesService -->
<g id="node6" class="node">
<title>ProfilesService</title>
<ellipse fill="#fdb462" stroke="black" cx="364" cy="-104" rx="70.06" ry="18"/>
<text text-anchor="middle" x="364" y="-99.8" font-family="Times,serif" font-size="14.00">ProfilesService</text>
</g>
<!-- ProfilesService&#45;&gt;CoreModule -->
<g id="edge6" class="edge">
<title>ProfilesService&#45;&gt;CoreModule</title>
<path fill="none" stroke="black" d="M364,-122.03C364,-138.4 364,-160 364,-160 364,-160 534.54,-160 534.54,-160"/>
<polygon fill="black" stroke="black" points="534.54,-163.5 544.54,-160 534.54,-156.5 534.54,-163.5"/>
</g>
<!-- TagsService -->
<g id="node7" class="node">
<title>TagsService</title>
<ellipse fill="#fdb462" stroke="black" cx="217" cy="-104" rx="58.53" ry="18"/>
<text text-anchor="middle" x="217" y="-99.8" font-family="Times,serif" font-size="14.00">TagsService</text>
</g>
<!-- TagsService&#45;&gt;CoreModule -->
<g id="edge7" class="edge">
<title>TagsService&#45;&gt;CoreModule</title>
<path fill="none" stroke="black" d="M217,-122.11C217,-141.34 217,-169 217,-169 217,-169 534.72,-169 534.72,-169"/>
<polygon fill="black" stroke="black" points="534.72,-172.5 544.72,-169 534.72,-165.5 534.72,-172.5"/>
</g>
<!-- UserService -->
<g id="node8" class="node">
<title>UserService</title>
<ellipse fill="#fdb462" stroke="black" cx="82" cy="-104" rx="58.44" ry="18"/>
<text text-anchor="middle" x="82" y="-99.8" font-family="Times,serif" font-size="14.00">UserService</text>
</g>
<!-- UserService&#45;&gt;CoreModule -->
<g id="edge8" class="edge">
<title>UserService&#45;&gt;CoreModule</title>
<path fill="none" stroke="black" d="M82,-122.29C82,-144.21 82,-178 82,-178 82,-178 534.42,-178 534.42,-178"/>
<polygon fill="black" stroke="black" points="534.42,-181.5 544.42,-178 534.42,-174.5 534.42,-181.5"/>
</g>
</g>
</svg>
