<?xml version="1.0" encoding="UTF-8" standalone="no"?>
<!DOCTYPE svg PUBLIC "-//W3C//DTD SVG 1.1//EN"
 "http://www.w3.org/Graphics/SVG/1.1/DTD/svg11.dtd">
<!-- Generated by graphviz version 2.47.0 (20210316.0004)
 -->
<!-- Title: dependencies Pages: 1 -->
<svg width="830pt" height="211pt"
 viewBox="0.00 0.00 830.00 211.00" xmlns="http://www.w3.org/2000/svg" xmlns:xlink="http://www.w3.org/1999/xlink">
<g id="graph0" class="graph" transform="scale(1 1) rotate(0) translate(4 207)">
<title>dependencies</title>
<polygon fill="white" stroke="transparent" points="-4,4 -4,-207 826,-207 826,4 -4,4"/>
<text text-anchor="start" x="390.01" y="-42.4" font-family="Times-12" font-weight="bold" font-size="14.00">Legend</text>
<polygon fill="#ffffb3" stroke="transparent" points="177,-10 177,-30 197,-30 197,-10 177,-10"/>
<text text-anchor="start" x="200.63" y="-15.4" font-family="Times-12" font-size="14.00"> &#160;Declarations</text>
<polygon fill="#8dd3c7" stroke="transparent" points="290,-10 290,-30 310,-30 310,-10 290,-10"/>
<text text-anchor="start" x="313.73" y="-15.4" font-family="Times-12" font-size="14.00"> &#160;Module</text>
<polygon fill="#80b1d3" stroke="transparent" points="376,-10 376,-30 396,-30 396,-10 376,-10"/>
<text text-anchor="start" x="399.78" y="-15.4" font-family="Times-12" font-size="14.00"> &#160;Bootstrap</text>
<polygon fill="#fdb462" stroke="transparent" points="473,-10 473,-30 493,-30 493,-10 473,-10"/>
<text text-anchor="start" x="496.67" y="-15.4" font-family="Times-12" font-size="14.00"> &#160;Providers</text>
<polygon fill="#fb8072" stroke="transparent" points="569,-10 569,-30 589,-30 589,-10 569,-10"/>
<text text-anchor="start" x="592.73" y="-15.4" font-family="Times-12" font-size="14.00"> &#160;Exports</text>
<g id="clust1" class="cluster">
<title>cluster_ProfileModule</title>
<polygon fill="none" stroke="black" stroke-dasharray="1,5" points="8,-70 8,-195 814,-195 814,-70 8,-70"/>
</g>
<g id="clust2" class="cluster">
<title>cluster_ProfileModule_declarations</title>
<polygon fill="none" stroke="black" points="299,-78 299,-130 806,-130 806,-78 299,-78"/>
</g>
<g id="clust6" class="cluster">
<title>cluster_ProfileModule_imports</title>
<polygon fill="none" stroke="black" points="16,-78 16,-130 291,-130 291,-78 16,-78"/>
</g>
<!-- ProfileArticlesComponent -->
<g id="node1" class="node">
<title>ProfileArticlesComponent</title>
<polygon fill="#ffffb3" stroke="black" points="797.74,-122 634.26,-122 634.26,-86 797.74,-86 797.74,-122"/>
<text text-anchor="middle" x="716" y="-99.8" font-family="Times,serif" font-size="14.00">ProfileArticlesComponent</text>
</g>
<!-- ProfileModule -->
<g id="node4" class="node">
<title>ProfileModule</title>
<polygon fill="#8dd3c7" stroke="black" points="441.65,-187 438.65,-191 417.65,-191 414.65,-187 344.35,-187 344.35,-151 441.65,-151 441.65,-187"/>
<text text-anchor="middle" x="393" y="-164.8" font-family="Times,serif" font-size="14.00">ProfileModule</text>
</g>
<!-- ProfileArticlesComponent&#45;&gt;ProfileModule -->
<g id="edge1" class="edge">
<title>ProfileArticlesComponent&#45;&gt;ProfileModule</title>
<path fill="none" stroke="black" d="M716,-122.28C716,-143.32 716,-175 716,-175 716,-175 451.71,-175 451.71,-175"/>
<polygon fill="black" stroke="black" points="451.71,-171.5 441.71,-175 451.71,-178.5 451.71,-171.5"/>
</g>
<!-- ProfileComponent -->
<g id="node2" class="node">
<title>ProfileComponent</title>
<polygon fill="#ffffb3" stroke="black" points="615.93,-122 496.07,-122 496.07,-86 615.93,-86 615.93,-122"/>
<text text-anchor="middle" x="556" y="-99.8" font-family="Times,serif" font-size="14.00">ProfileComponent</text>
</g>
<!-- ProfileComponent&#45;&gt;ProfileModule -->
<g id="edge2" class="edge">
<title>ProfileComponent&#45;&gt;ProfileModule</title>
<path fill="none" stroke="black" d="M556,-122.02C556,-139.37 556,-163 556,-163 556,-163 451.91,-163 451.91,-163"/>
<polygon fill="black" stroke="black" points="451.91,-159.5 441.91,-163 451.91,-166.5 451.91,-159.5"/>
</g>
<!-- ProfileFavoritesComponent -->
<g id="node3" class="node">
<title>ProfileFavoritesComponent</title>
<polygon fill="#ffffb3" stroke="black" points="478.53,-122 307.47,-122 307.47,-86 478.53,-86 478.53,-122"/>
<text text-anchor="middle" x="393" y="-99.8" font-family="Times,serif" font-size="14.00">ProfileFavoritesComponent</text>
</g>
<!-- ProfileFavoritesComponent&#45;&gt;ProfileModule -->
<g id="edge3" class="edge">
<title>ProfileFavoritesComponent&#45;&gt;ProfileModule</title>
<path fill="none" stroke="black" d="M393,-122.11C393,-122.11 393,-140.99 393,-140.99"/>
<polygon fill="black" stroke="black" points="389.5,-140.99 393,-150.99 396.5,-140.99 389.5,-140.99"/>
</g>
<!-- ProfileRoutingModule -->
<g id="node5" class="node">
<title>ProfileRoutingModule</title>
<polygon fill="#8dd3c7" stroke="black" points="283.27,-122 280.27,-126 259.27,-126 256.27,-122 140.73,-122 140.73,-86 283.27,-86 283.27,-122"/>
<text text-anchor="middle" x="212" y="-99.8" font-family="Times,serif" font-size="14.00">ProfileRoutingModule</text>
</g>
<!-- ProfileRoutingModule&#45;&gt;ProfileModule -->
<g id="edge4" class="edge">
<title>ProfileRoutingModule&#45;&gt;ProfileModule</title>
<path fill="none" stroke="black" d="M212,-122.02C212,-139.37 212,-163 212,-163 212,-163 334.02,-163 334.02,-163"/>
<polygon fill="black" stroke="black" points="334.02,-166.5 344.02,-163 334.02,-159.5 334.02,-166.5"/>
</g>
<!-- SharedModule -->
<g id="node6" class="node">
<title>SharedModule</title>
<polygon fill="#8dd3c7" stroke="black" points="122.42,-122 119.42,-126 98.42,-126 95.42,-122 23.58,-122 23.58,-86 122.42,-86 122.42,-122"/>
<text text-anchor="middle" x="73" y="-99.8" font-family="Times,serif" font-size="14.00">SharedModule</text>
</g>
<!-- SharedModule&#45;&gt;ProfileModule -->
<g id="edge5" class="edge">
<title>SharedModule&#45;&gt;ProfileModule</title>
<path fill="none" stroke="black" d="M73,-122.28C73,-143.32 73,-175 73,-175 73,-175 334.05,-175 334.05,-175"/>
<polygon fill="black" stroke="black" points="334.05,-178.5 344.05,-175 334.05,-171.5 334.05,-178.5"/>
</g>
</g>
</svg>
