<?xml version="1.0" encoding="UTF-8" standalone="no"?>
<!DOCTYPE svg PUBLIC "-//W3C//DTD SVG 1.1//EN"
 "http://www.w3.org/Graphics/SVG/1.1/DTD/svg11.dtd">
<!-- Generated by graphviz version 2.47.0 (20210316.0004)
 -->
<!-- Title: dependencies Pages: 1 -->
<svg width="774pt" height="211pt"
 viewBox="0.00 0.00 774.00 211.00" xmlns="http://www.w3.org/2000/svg" xmlns:xlink="http://www.w3.org/1999/xlink">
<g id="graph0" class="graph" transform="scale(1 1) rotate(0) translate(4 207)">
<title>dependencies</title>
<polygon fill="white" stroke="transparent" points="-4,4 -4,-207 770,-207 770,4 -4,4"/>
<text text-anchor="start" x="362.01" y="-42.4" font-family="Times-12" font-weight="bold" font-size="14.00">Legend</text>
<polygon fill="#ffffb3" stroke="transparent" points="149,-10 149,-30 169,-30 169,-10 149,-10"/>
<text text-anchor="start" x="172.63" y="-15.4" font-family="Times-12" font-size="14.00"> &#160;Declarations</text>
<polygon fill="#8dd3c7" stroke="transparent" points="262,-10 262,-30 282,-30 282,-10 262,-10"/>
<text text-anchor="start" x="285.73" y="-15.4" font-family="Times-12" font-size="14.00"> &#160;Module</text>
<polygon fill="#80b1d3" stroke="transparent" points="348,-10 348,-30 368,-30 368,-10 348,-10"/>
<text text-anchor="start" x="371.78" y="-15.4" font-family="Times-12" font-size="14.00"> &#160;Bootstrap</text>
<polygon fill="#fdb462" stroke="transparent" points="445,-10 445,-30 465,-30 465,-10 445,-10"/>
<text text-anchor="start" x="468.67" y="-15.4" font-family="Times-12" font-size="14.00"> &#160;Providers</text>
<polygon fill="#fb8072" stroke="transparent" points="541,-10 541,-30 561,-30 561,-10 541,-10"/>
<text text-anchor="start" x="564.73" y="-15.4" font-family="Times-12" font-size="14.00"> &#160;Exports</text>
<g id="clust1" class="cluster">
<title>cluster_ArticleModule</title>
<polygon fill="none" stroke="black" stroke-dasharray="1,5" points="8,-70 8,-195 758,-195 758,-70 8,-70"/>
</g>
<g id="clust2" class="cluster">
<title>cluster_ArticleModule_declarations</title>
<polygon fill="none" stroke="black" points="300,-78 300,-130 750,-130 750,-78 300,-78"/>
</g>
<g id="clust6" class="cluster">
<title>cluster_ArticleModule_imports</title>
<polygon fill="none" stroke="black" points="16,-78 16,-130 292,-130 292,-78 16,-78"/>
</g>
<!-- ArticleCommentComponent -->
<g id="node1" class="node">
<title>ArticleCommentComponent</title>
<polygon fill="#ffffb3" stroke="black" points="741.92,-122 566.08,-122 566.08,-86 741.92,-86 741.92,-122"/>
<text text-anchor="middle" x="654" y="-99.8" font-family="Times,serif" font-size="14.00">ArticleCommentComponent</text>
</g>
<!-- ArticleModule -->
<g id="node4" class="node">
<title>ArticleModule</title>
<polygon fill="#8dd3c7" stroke="black" points="408.42,-187 405.42,-191 384.42,-191 381.42,-187 309.58,-187 309.58,-151 408.42,-151 408.42,-187"/>
<text text-anchor="middle" x="359" y="-164.8" font-family="Times,serif" font-size="14.00">ArticleModule</text>
</g>
<!-- ArticleCommentComponent&#45;&gt;ArticleModule -->
<g id="edge1" class="edge">
<title>ArticleCommentComponent&#45;&gt;ArticleModule</title>
<path fill="none" stroke="black" d="M654,-122.28C654,-143.32 654,-175 654,-175 654,-175 418.38,-175 418.38,-175"/>
<polygon fill="black" stroke="black" points="418.38,-171.5 408.38,-175 418.38,-178.5 418.38,-171.5"/>
</g>
<!-- ArticleComponent -->
<g id="node2" class="node">
<title>ArticleComponent</title>
<polygon fill="#ffffb3" stroke="black" points="548.2,-122 427.8,-122 427.8,-86 548.2,-86 548.2,-122"/>
<text text-anchor="middle" x="488" y="-99.8" font-family="Times,serif" font-size="14.00">ArticleComponent</text>
</g>
<!-- ArticleComponent&#45;&gt;ArticleModule -->
<g id="edge2" class="edge">
<title>ArticleComponent&#45;&gt;ArticleModule</title>
<path fill="none" stroke="black" d="M488,-122.02C488,-139.37 488,-163 488,-163 488,-163 418.51,-163 418.51,-163"/>
<polygon fill="black" stroke="black" points="418.51,-159.5 408.51,-163 418.51,-166.5 418.51,-159.5"/>
</g>
<!-- MarkdownPipe -->
<g id="node3" class="node">
<title>MarkdownPipe</title>
<polygon fill="#ffffb3" stroke="black" points="410.31,-122 307.69,-122 307.69,-86 410.31,-86 410.31,-122"/>
<text text-anchor="middle" x="359" y="-99.8" font-family="Times,serif" font-size="14.00">MarkdownPipe</text>
</g>
<!-- MarkdownPipe&#45;&gt;ArticleModule -->
<g id="edge3" class="edge">
<title>MarkdownPipe&#45;&gt;ArticleModule</title>
<path fill="none" stroke="black" d="M359,-122.11C359,-122.11 359,-140.99 359,-140.99"/>
<polygon fill="black" stroke="black" points="355.5,-140.99 359,-150.99 362.5,-140.99 355.5,-140.99"/>
</g>
<!-- ArticleRoutingModule -->
<g id="node5" class="node">
<title>ArticleRoutingModule</title>
<polygon fill="#8dd3c7" stroke="black" points="283.54,-122 280.54,-126 259.54,-126 256.54,-122 140.46,-122 140.46,-86 283.54,-86 283.54,-122"/>
<text text-anchor="middle" x="212" y="-99.8" font-family="Times,serif" font-size="14.00">ArticleRoutingModule</text>
</g>
<!-- ArticleRoutingModule&#45;&gt;ArticleModule -->
<g id="edge4" class="edge">
<title>ArticleRoutingModule&#45;&gt;ArticleModule</title>
<path fill="none" stroke="black" d="M212,-122.02C212,-139.37 212,-163 212,-163 212,-163 299.64,-163 299.64,-163"/>
<polygon fill="black" stroke="black" points="299.64,-166.5 309.64,-163 299.64,-159.5 299.64,-166.5"/>
</g>
<!-- SharedModule -->
<g id="node6" class="node">
<title>SharedModule</title>
<polygon fill="#8dd3c7" stroke="black" points="122.42,-122 119.42,-126 98.42,-126 95.42,-122 23.58,-122 23.58,-86 122.42,-86 122.42,-122"/>
<text text-anchor="middle" x="73" y="-99.8" font-family="Times,serif" font-size="14.00">SharedModule</text>
</g>
<!-- SharedModule&#45;&gt;ArticleModule -->
<g id="edge5" class="edge">
<title>SharedModule&#45;&gt;ArticleModule</title>
<path fill="none" stroke="black" d="M73,-122.28C73,-143.32 73,-175 73,-175 73,-175 299.51,-175 299.51,-175"/>
<polygon fill="black" stroke="black" points="299.51,-178.5 309.51,-175 299.51,-171.5 299.51,-178.5"/>
</g>
</g>
</svg>
