<?xml version="1.0" encoding="UTF-8" standalone="no"?>
<!DOCTYPE svg PUBLIC "-//W3C//DTD SVG 1.1//EN"
 "http://www.w3.org/Graphics/SVG/1.1/DTD/svg11.dtd">
<!-- Generated by graphviz version 2.47.0 (20210316.0004)
 -->
<!-- Title: dependencies Pages: 1 -->
<svg width="1039pt" height="211pt"
 viewBox="0.00 0.00 1039.00 211.00" xmlns="http://www.w3.org/2000/svg" xmlns:xlink="http://www.w3.org/1999/xlink">
<g id="graph0" class="graph" transform="scale(1 1) rotate(0) translate(4 207)">
<title>dependencies</title>
<polygon fill="white" stroke="transparent" points="-4,4 -4,-207 1035,-207 1035,4 -4,4"/>
<text text-anchor="start" x="494.51" y="-42.4" font-family="Times-12" font-weight="bold" font-size="14.00">Legend</text>
<polygon fill="#ffffb3" stroke="transparent" points="281.5,-10 281.5,-30 301.5,-30 301.5,-10 281.5,-10"/>
<text text-anchor="start" x="305.13" y="-15.4" font-family="Times-12" font-size="14.00"> &#160;Declarations</text>
<polygon fill="#8dd3c7" stroke="transparent" points="394.5,-10 394.5,-30 414.5,-30 414.5,-10 394.5,-10"/>
<text text-anchor="start" x="418.23" y="-15.4" font-family="Times-12" font-size="14.00"> &#160;Module</text>
<polygon fill="#80b1d3" stroke="transparent" points="480.5,-10 480.5,-30 500.5,-30 500.5,-10 480.5,-10"/>
<text text-anchor="start" x="504.28" y="-15.4" font-family="Times-12" font-size="14.00"> &#160;Bootstrap</text>
<polygon fill="#fdb462" stroke="transparent" points="577.5,-10 577.5,-30 597.5,-30 597.5,-10 577.5,-10"/>
<text text-anchor="start" x="601.17" y="-15.4" font-family="Times-12" font-size="14.00"> &#160;Providers</text>
<polygon fill="#fb8072" stroke="transparent" points="673.5,-10 673.5,-30 693.5,-30 693.5,-10 673.5,-10"/>
<text text-anchor="start" x="697.23" y="-15.4" font-family="Times-12" font-size="14.00"> &#160;Exports</text>
<g id="clust1" class="cluster">
<title>cluster_HomeModule</title>
<polygon fill="none" stroke="black" stroke-dasharray="1,5" points="8,-70 8,-195 1023,-195 1023,-70 8,-70"/>
</g>
<g id="clust2" class="cluster">
<title>cluster_HomeModule_declarations</title>
<polygon fill="none" stroke="black" points="417,-78 417,-130 1015,-130 1015,-78 417,-78"/>
</g>
<g id="clust7" class="cluster">
<title>cluster_HomeModule_imports</title>
<polygon fill="none" stroke="black" points="16,-78 16,-130 409,-130 409,-78 16,-78"/>
</g>
<!-- HomeComponent -->
<g id="node1" class="node">
<title>HomeComponent</title>
<polygon fill="#ffffb3" stroke="black" points="1006.55,-122 891.45,-122 891.45,-86 1006.55,-86 1006.55,-122"/>
<text text-anchor="middle" x="949" y="-99.8" font-family="Times,serif" font-size="14.00">HomeComponent</text>
</g>
<!-- HomeModule -->
<g id="node5" class="node">
<title>HomeModule</title>
<polygon fill="#8dd3c7" stroke="black" points="541.76,-187 538.76,-191 517.76,-191 514.76,-187 448.24,-187 448.24,-151 541.76,-151 541.76,-187"/>
<text text-anchor="middle" x="495" y="-164.8" font-family="Times,serif" font-size="14.00">HomeModule</text>
</g>
<!-- HomeComponent&#45;&gt;HomeModule -->
<g id="edge1" class="edge">
<title>HomeComponent&#45;&gt;HomeModule</title>
<path fill="none" stroke="black" d="M949,-122.29C949,-144.21 949,-178 949,-178 949,-178 551.88,-178 551.88,-178"/>
<polygon fill="black" stroke="black" points="551.88,-174.5 541.88,-178 551.88,-181.5 551.88,-174.5"/>
</g>
<!-- ImagePostComponent -->
<g id="node2" class="node">
<title>ImagePostComponent</title>
<polygon fill="#ffffb3" stroke="black" points="873.43,-122 732.57,-122 732.57,-86 873.43,-86 873.43,-122"/>
<text text-anchor="middle" x="803" y="-99.8" font-family="Times,serif" font-size="14.00">ImagePostComponent</text>
</g>
<!-- ImagePostComponent&#45;&gt;HomeModule -->
<g id="edge2" class="edge">
<title>ImagePostComponent&#45;&gt;HomeModule</title>
<path fill="none" stroke="black" d="M803,-122.11C803,-141.34 803,-169 803,-169 803,-169 551.78,-169 551.78,-169"/>
<polygon fill="black" stroke="black" points="551.78,-165.5 541.78,-169 551.78,-172.5 551.78,-165.5"/>
</g>
<!-- TimelineComponent -->
<g id="node3" class="node">
<title>TimelineComponent</title>
<polygon fill="#ffffb3" stroke="black" points="714.88,-122 583.12,-122 583.12,-86 714.88,-86 714.88,-122"/>
<text text-anchor="middle" x="649" y="-99.8" font-family="Times,serif" font-size="14.00">TimelineComponent</text>
</g>
<!-- TimelineComponent&#45;&gt;HomeModule -->
<g id="edge3" class="edge">
<title>TimelineComponent&#45;&gt;HomeModule</title>
<path fill="none" stroke="black" d="M649,-122.03C649,-138.4 649,-160 649,-160 649,-160 552.04,-160 552.04,-160"/>
<polygon fill="black" stroke="black" points="552.04,-156.5 542.04,-160 552.04,-163.5 552.04,-156.5"/>
</g>
<!-- VideoPostComponent -->
<g id="node4" class="node">
<title>VideoPostComponent</title>
<polygon fill="#ffffb3" stroke="black" points="564.66,-122 425.34,-122 425.34,-86 564.66,-86 564.66,-122"/>
<text text-anchor="middle" x="495" y="-99.8" font-family="Times,serif" font-size="14.00">VideoPostComponent</text>
</g>
<!-- VideoPostComponent&#45;&gt;HomeModule -->
<g id="edge4" class="edge">
<title>VideoPostComponent&#45;&gt;HomeModule</title>
<path fill="none" stroke="black" d="M495,-122.11C495,-122.11 495,-140.99 495,-140.99"/>
<polygon fill="black" stroke="black" points="491.5,-140.99 495,-150.99 498.5,-140.99 491.5,-140.99"/>
</g>
<!-- ContentModule -->
<g id="node6" class="node">
<title>ContentModule</title>
<polygon fill="#8dd3c7" stroke="black" points="400.88,-122 397.88,-126 376.88,-126 373.88,-122 297.12,-122 297.12,-86 400.88,-86 400.88,-122"/>
<text text-anchor="middle" x="349" y="-99.8" font-family="Times,serif" font-size="14.00">ContentModule</text>
</g>
<!-- ContentModule&#45;&gt;HomeModule -->
<g id="edge5" class="edge">
<title>ContentModule&#45;&gt;HomeModule</title>
<path fill="none" stroke="black" d="M349,-122.03C349,-138.4 349,-160 349,-160 349,-160 438,-160 438,-160"/>
<polygon fill="black" stroke="black" points="438,-163.5 448,-160 438,-156.5 438,-163.5"/>
</g>
<!-- HomeRoutingModule -->
<g id="node7" class="node">
<title>HomeRoutingModule</title>
<polygon fill="#8dd3c7" stroke="black" points="279.38,-122 276.38,-126 255.38,-126 252.38,-122 140.62,-122 140.62,-86 279.38,-86 279.38,-122"/>
<text text-anchor="middle" x="210" y="-99.8" font-family="Times,serif" font-size="14.00">HomeRoutingModule</text>
</g>
<!-- HomeRoutingModule&#45;&gt;HomeModule -->
<g id="edge6" class="edge">
<title>HomeRoutingModule&#45;&gt;HomeModule</title>
<path fill="none" stroke="black" d="M210,-122.11C210,-141.34 210,-169 210,-169 210,-169 437.94,-169 437.94,-169"/>
<polygon fill="black" stroke="black" points="437.94,-172.5 447.94,-169 437.94,-165.5 437.94,-172.5"/>
</g>
<!-- SharedModule -->
<g id="node8" class="node">
<title>SharedModule</title>
<polygon fill="#8dd3c7" stroke="black" points="122.42,-122 119.42,-126 98.42,-126 95.42,-122 23.58,-122 23.58,-86 122.42,-86 122.42,-122"/>
<text text-anchor="middle" x="73" y="-99.8" font-family="Times,serif" font-size="14.00">SharedModule</text>
</g>
<!-- SharedModule&#45;&gt;HomeModule -->
<g id="edge7" class="edge">
<title>SharedModule&#45;&gt;HomeModule</title>
<path fill="none" stroke="black" d="M73,-122.29C73,-144.21 73,-178 73,-178 73,-178 438.23,-178 438.23,-178"/>
<polygon fill="black" stroke="black" points="438.23,-181.5 448.23,-178 438.23,-174.5 438.23,-181.5"/>
</g>
</g>
</svg>
