<?xml version="1.0" encoding="UTF-8" standalone="no"?>
<!DOCTYPE svg PUBLIC "-//W3C//DTD SVG 1.1//EN"
 "http://www.w3.org/Graphics/SVG/1.1/DTD/svg11.dtd">
<!-- Generated by graphviz version 2.47.0 (20210316.0004)
 -->
<!-- Title: dependencies Pages: 1 -->
<svg width="862pt" height="211pt"
 viewBox="0.00 0.00 862.00 211.00" xmlns="http://www.w3.org/2000/svg" xmlns:xlink="http://www.w3.org/1999/xlink">
<g id="graph0" class="graph" transform="scale(1 1) rotate(0) translate(4 207)">
<title>dependencies</title>
<polygon fill="white" stroke="transparent" points="-4,4 -4,-207 858,-207 858,4 -4,4"/>
<text text-anchor="start" x="406.01" y="-42.4" font-family="Times-12" font-weight="bold" font-size="14.00">Legend</text>
<polygon fill="#ffffb3" stroke="transparent" points="193,-10 193,-30 213,-30 213,-10 193,-10"/>
<text text-anchor="start" x="216.63" y="-15.4" font-family="Times-12" font-size="14.00"> &#160;Declarations</text>
<polygon fill="#8dd3c7" stroke="transparent" points="306,-10 306,-30 326,-30 326,-10 306,-10"/>
<text text-anchor="start" x="329.73" y="-15.4" font-family="Times-12" font-size="14.00"> &#160;Module</text>
<polygon fill="#80b1d3" stroke="transparent" points="392,-10 392,-30 412,-30 412,-10 392,-10"/>
<text text-anchor="start" x="415.78" y="-15.4" font-family="Times-12" font-size="14.00"> &#160;Bootstrap</text>
<polygon fill="#fdb462" stroke="transparent" points="489,-10 489,-30 509,-30 509,-10 489,-10"/>
<text text-anchor="start" x="512.67" y="-15.4" font-family="Times-12" font-size="14.00"> &#160;Providers</text>
<polygon fill="#fb8072" stroke="transparent" points="585,-10 585,-30 605,-30 605,-10 585,-10"/>
<text text-anchor="start" x="608.73" y="-15.4" font-family="Times-12" font-size="14.00"> &#160;Exports</text>
<g id="clust1" class="cluster">
<title>cluster_ProjectsModule</title>
<polygon fill="none" stroke="black" stroke-dasharray="1,5" points="8,-70 8,-195 846,-195 846,-70 8,-70"/>
</g>
<g id="clust7" class="cluster">
<title>cluster_ProjectsModule_imports</title>
<polygon fill="none" stroke="black" points="722,-78 722,-130 838,-130 838,-78 722,-78"/>
</g>
<g id="clust2" class="cluster">
<title>cluster_ProjectsModule_declarations</title>
<polygon fill="none" stroke="black" points="16,-78 16,-130 714,-130 714,-78 16,-78"/>
</g>
<!-- JeevanRatansComponent -->
<g id="node1" class="node">
<title>JeevanRatansComponent</title>
<polygon fill="#ffffb3" stroke="black" points="705.52,-122 548.48,-122 548.48,-86 705.52,-86 705.52,-122"/>
<text text-anchor="middle" x="627" y="-99.8" font-family="Times,serif" font-size="14.00">JeevanRatansComponent</text>
</g>
<!-- ProjectsModule -->
<g id="node5" class="node">
<title>ProjectsModule</title>
<polygon fill="#8dd3c7" stroke="black" points="518.15,-187 515.15,-191 494.15,-191 491.15,-187 413.85,-187 413.85,-151 518.15,-151 518.15,-187"/>
<text text-anchor="middle" x="466" y="-164.8" font-family="Times,serif" font-size="14.00">ProjectsModule</text>
</g>
<!-- JeevanRatansComponent&#45;&gt;ProjectsModule -->
<g id="edge1" class="edge">
<title>JeevanRatansComponent&#45;&gt;ProjectsModule</title>
<path fill="none" stroke="black" d="M627,-122.02C627,-139.37 627,-163 627,-163 627,-163 528.27,-163 528.27,-163"/>
<polygon fill="black" stroke="black" points="528.27,-159.5 518.27,-163 528.27,-166.5 528.27,-159.5"/>
</g>
<!-- MyBlogComponent -->
<g id="node2" class="node">
<title>MyBlogComponent</title>
<polygon fill="#ffffb3" stroke="black" points="530,-122 402,-122 402,-86 530,-86 530,-122"/>
<text text-anchor="middle" x="466" y="-99.8" font-family="Times,serif" font-size="14.00">MyBlogComponent</text>
</g>
<!-- MyBlogComponent&#45;&gt;ProjectsModule -->
<g id="edge2" class="edge">
<title>MyBlogComponent&#45;&gt;ProjectsModule</title>
<path fill="none" stroke="black" d="M466,-122.11C466,-122.11 466,-140.99 466,-140.99"/>
<polygon fill="black" stroke="black" points="462.5,-140.99 466,-150.99 469.5,-140.99 462.5,-140.99"/>
</g>
<!-- MyPublicInfoComponent -->
<g id="node3" class="node">
<title>MyPublicInfoComponent</title>
<polygon fill="#ffffb3" stroke="black" points="383.88,-122 224.12,-122 224.12,-86 383.88,-86 383.88,-122"/>
<text text-anchor="middle" x="304" y="-99.8" font-family="Times,serif" font-size="14.00">MyPublicInfoComponent</text>
</g>
<!-- MyPublicInfoComponent&#45;&gt;ProjectsModule -->
<g id="edge3" class="edge">
<title>MyPublicInfoComponent&#45;&gt;ProjectsModule</title>
<path fill="none" stroke="black" d="M304,-122.02C304,-139.37 304,-163 304,-163 304,-163 403.85,-163 403.85,-163"/>
<polygon fill="black" stroke="black" points="403.85,-166.5 413.85,-163 403.85,-159.5 403.85,-166.5"/>
</g>
<!-- ProjectsContainerComponent -->
<g id="node4" class="node">
<title>ProjectsContainerComponent</title>
<polygon fill="#ffffb3" stroke="black" points="205.64,-122 24.36,-122 24.36,-86 205.64,-86 205.64,-122"/>
<text text-anchor="middle" x="115" y="-99.8" font-family="Times,serif" font-size="14.00">ProjectsContainerComponent</text>
</g>
<!-- ProjectsContainerComponent&#45;&gt;ProjectsModule -->
<g id="edge4" class="edge">
<title>ProjectsContainerComponent&#45;&gt;ProjectsModule</title>
<path fill="none" stroke="black" d="M115,-122.28C115,-143.32 115,-175 115,-175 115,-175 403.83,-175 403.83,-175"/>
<polygon fill="black" stroke="black" points="403.83,-178.5 413.83,-175 403.83,-171.5 403.83,-178.5"/>
</g>
<!-- MoneyModule -->
<g id="node6" class="node">
<title>MoneyModule</title>
<polygon fill="#8dd3c7" stroke="black" points="829.71,-122 826.71,-126 805.71,-126 802.71,-122 730.29,-122 730.29,-86 829.71,-86 829.71,-122"/>
<text text-anchor="middle" x="780" y="-99.8" font-family="Times,serif" font-size="14.00">MoneyModule</text>
</g>
<!-- MoneyModule&#45;&gt;ProjectsModule -->
<g id="edge5" class="edge">
<title>MoneyModule&#45;&gt;ProjectsModule</title>
<path fill="none" stroke="black" d="M780,-122.28C780,-143.32 780,-175 780,-175 780,-175 528.2,-175 528.2,-175"/>
<polygon fill="black" stroke="black" points="528.2,-171.5 518.2,-175 528.2,-178.5 528.2,-171.5"/>
</g>
</g>
</svg>
