<?xml version="1.0" encoding="UTF-8" standalone="no"?>
<!DOCTYPE svg PUBLIC "-//W3C//DTD SVG 1.1//EN"
 "http://www.w3.org/Graphics/SVG/1.1/DTD/svg11.dtd">
<!-- Generated by graphviz version 2.47.0 (20210316.0004)
 -->
<!-- Title: dependencies Pages: 1 -->
<svg width="1390pt" height="284pt"
 viewBox="0.00 0.00 1390.00 284.00" xmlns="http://www.w3.org/2000/svg" xmlns:xlink="http://www.w3.org/1999/xlink">
<g id="graph0" class="graph" transform="scale(1 1) rotate(0) translate(4 280)">
<title>dependencies</title>
<polygon fill="white" stroke="transparent" points="-4,4 -4,-280 1386,-280 1386,4 -4,4"/>
<text text-anchor="start" x="670.01" y="-42.4" font-family="Times-12" font-weight="bold" font-size="14.00">Legend</text>
<polygon fill="#ffffb3" stroke="transparent" points="457,-10 457,-30 477,-30 477,-10 457,-10"/>
<text text-anchor="start" x="480.63" y="-15.4" font-family="Times-12" font-size="14.00"> &#160;Declarations</text>
<polygon fill="#8dd3c7" stroke="transparent" points="570,-10 570,-30 590,-30 590,-10 570,-10"/>
<text text-anchor="start" x="593.73" y="-15.4" font-family="Times-12" font-size="14.00"> &#160;Module</text>
<polygon fill="#80b1d3" stroke="transparent" points="656,-10 656,-30 676,-30 676,-10 656,-10"/>
<text text-anchor="start" x="679.78" y="-15.4" font-family="Times-12" font-size="14.00"> &#160;Bootstrap</text>
<polygon fill="#fdb462" stroke="transparent" points="753,-10 753,-30 773,-30 773,-10 753,-10"/>
<text text-anchor="start" x="776.67" y="-15.4" font-family="Times-12" font-size="14.00"> &#160;Providers</text>
<polygon fill="#fb8072" stroke="transparent" points="849,-10 849,-30 869,-30 869,-10 849,-10"/>
<text text-anchor="start" x="872.73" y="-15.4" font-family="Times-12" font-size="14.00"> &#160;Exports</text>
<g id="clust1" class="cluster">
<title>cluster_ContentModule</title>
<polygon fill="none" stroke="black" stroke-dasharray="1,5" points="8,-70 8,-268 1374,-268 1374,-70 8,-70"/>
</g>
<g id="clust2" class="cluster">
<title>cluster_ContentModule_declarations</title>
<polygon fill="none" stroke="black" points="16,-78 16,-130 1366,-130 1366,-78 16,-78"/>
</g>
<g id="clust12" class="cluster">
<title>cluster_ContentModule_exports</title>
<polygon fill="none" stroke="black" points="263,-208 263,-260 1047,-260 1047,-208 263,-208"/>
</g>
<!-- BlogsComponent -->
<g id="node1" class="node">
<title>BlogsComponent</title>
<polygon fill="#ffffb3" stroke="black" points="1358,-122 1244,-122 1244,-86 1358,-86 1358,-122"/>
<text text-anchor="middle" x="1301" y="-99.8" font-family="Times,serif" font-size="14.00">BlogsComponent</text>
</g>
<!-- ContentModule -->
<g id="node9" class="node">
<title>ContentModule</title>
<polygon fill="#8dd3c7" stroke="black" points="712.88,-187 709.88,-191 688.88,-191 685.88,-187 609.12,-187 609.12,-151 712.88,-151 712.88,-187"/>
<text text-anchor="middle" x="661" y="-164.8" font-family="Times,serif" font-size="14.00">ContentModule</text>
</g>
<!-- BlogsComponent&#45;&gt;ContentModule -->
<g id="edge1" class="edge">
<title>BlogsComponent&#45;&gt;ContentModule</title>
<path fill="none" stroke="black" d="M1301,-122.11C1301,-141.34 1301,-169 1301,-169 1301,-169 723.1,-169 723.1,-169"/>
<polygon fill="black" stroke="black" points="723.1,-165.5 713.1,-169 723.1,-172.5 723.1,-165.5"/>
</g>
<!-- ContentHomeComponent -->
<g id="node2" class="node">
<title>ContentHomeComponent</title>
<polygon fill="#ffffb3" stroke="black" points="1225.88,-122 1066.12,-122 1066.12,-86 1225.88,-86 1225.88,-122"/>
<text text-anchor="middle" x="1146" y="-99.8" font-family="Times,serif" font-size="14.00">ContentHomeComponent</text>
</g>
<!-- ContentHomeComponent&#45;&gt;ContentModule -->
<g id="edge2" class="edge">
<title>ContentHomeComponent&#45;&gt;ContentModule</title>
<path fill="none" stroke="black" d="M1146,-122.02C1146,-139.37 1146,-163 1146,-163 1146,-163 722.9,-163 722.9,-163"/>
<polygon fill="black" stroke="black" points="722.9,-159.5 712.9,-163 722.9,-166.5 722.9,-159.5"/>
</g>
<!-- PresentationListComponent -->
<g id="node3" class="node">
<title>PresentationListComponent</title>
<polygon fill="#ffffb3" stroke="black" points="1048.31,-122 875.69,-122 875.69,-86 1048.31,-86 1048.31,-122"/>
<text text-anchor="middle" x="962" y="-99.8" font-family="Times,serif" font-size="14.00">PresentationListComponent</text>
</g>
<!-- PresentationListComponent&#45;&gt;ContentModule -->
<g id="edge3" class="edge">
<title>PresentationListComponent&#45;&gt;ContentModule</title>
<path fill="none" stroke="black" d="M889.79,-122.24C889.79,-137.57 889.79,-157 889.79,-157 889.79,-157 722.92,-157 722.92,-157"/>
<polygon fill="black" stroke="black" points="722.92,-153.5 712.92,-157 722.92,-160.5 722.92,-153.5"/>
</g>
<!-- PresentationListItemComponent -->
<g id="node4" class="node">
<title>PresentationListItemComponent</title>
<polygon fill="#ffffb3" stroke="black" points="857.97,-122 660.03,-122 660.03,-86 857.97,-86 857.97,-122"/>
<text text-anchor="middle" x="759" y="-99.8" font-family="Times,serif" font-size="14.00">PresentationListItemComponent</text>
</g>
<!-- PresentationListItemComponent&#45;&gt;ContentModule -->
<g id="edge4" class="edge">
<title>PresentationListItemComponent&#45;&gt;ContentModule</title>
<path fill="none" stroke="black" d="M686.48,-122.11C686.48,-122.11 686.48,-140.99 686.48,-140.99"/>
<polygon fill="black" stroke="black" points="682.98,-140.99 686.48,-150.99 689.98,-140.99 682.98,-140.99"/>
</g>
<!-- PresentationsComponent -->
<g id="node5" class="node">
<title>PresentationsComponent</title>
<polygon fill="#ffffb3" stroke="black" points="641.98,-122 486.02,-122 486.02,-86 641.98,-86 641.98,-122"/>
<text text-anchor="middle" x="564" y="-99.8" font-family="Times,serif" font-size="14.00">PresentationsComponent</text>
</g>
<!-- PresentationsComponent&#45;&gt;ContentModule -->
<g id="edge5" class="edge">
<title>PresentationsComponent&#45;&gt;ContentModule</title>
<path fill="none" stroke="black" d="M625.52,-122.11C625.52,-122.11 625.52,-140.99 625.52,-140.99"/>
<polygon fill="black" stroke="black" points="622.02,-140.99 625.52,-150.99 629.02,-140.99 622.02,-140.99"/>
</g>
<!-- ProjectsComponent -->
<g id="node6" class="node">
<title>ProjectsComponent</title>
<polygon fill="#ffffb3" stroke="black" points="468.43,-122 341.57,-122 341.57,-86 468.43,-86 468.43,-122"/>
<text text-anchor="middle" x="405" y="-99.8" font-family="Times,serif" font-size="14.00">ProjectsComponent</text>
</g>
<!-- ProjectsComponent&#45;&gt;ContentModule -->
<g id="edge6" class="edge">
<title>ProjectsComponent&#45;&gt;ContentModule</title>
<path fill="none" stroke="black" d="M440.88,-122.24C440.88,-137.57 440.88,-157 440.88,-157 440.88,-157 599.11,-157 599.11,-157"/>
<polygon fill="black" stroke="black" points="599.11,-160.5 609.11,-157 599.11,-153.5 599.11,-160.5"/>
</g>
<!-- QuotesBannerComponent -->
<g id="node7" class="node">
<title>QuotesBannerComponent</title>
<polygon fill="#ffffb3" stroke="black" points="323.92,-122 162.08,-122 162.08,-86 323.92,-86 323.92,-122"/>
<text text-anchor="middle" x="243" y="-99.8" font-family="Times,serif" font-size="14.00">QuotesBannerComponent</text>
</g>
<!-- QuotesBannerComponent&#45;&gt;ContentModule -->
<g id="edge7" class="edge">
<title>QuotesBannerComponent&#45;&gt;ContentModule</title>
<path fill="none" stroke="black" d="M297.23,-122.02C297.23,-139.37 297.23,-163 297.23,-163 297.23,-163 598.88,-163 598.88,-163"/>
<polygon fill="black" stroke="black" points="598.88,-166.5 608.88,-163 598.88,-159.5 598.88,-166.5"/>
</g>
<!-- VideosComponent -->
<g id="node8" class="node">
<title>VideosComponent</title>
<polygon fill="#ffffb3" stroke="black" points="144.49,-122 23.51,-122 23.51,-86 144.49,-86 144.49,-122"/>
<text text-anchor="middle" x="84" y="-99.8" font-family="Times,serif" font-size="14.00">VideosComponent</text>
</g>
<!-- VideosComponent&#45;&gt;ContentModule -->
<g id="edge8" class="edge">
<title>VideosComponent&#45;&gt;ContentModule</title>
<path fill="none" stroke="black" d="M84,-122.11C84,-141.34 84,-169 84,-169 84,-169 599.03,-169 599.03,-169"/>
<polygon fill="black" stroke="black" points="599.03,-172.5 609.03,-169 599.03,-165.5 599.03,-172.5"/>
</g>
<!-- BlogsComponent  -->
<g id="node10" class="node">
<title>BlogsComponent </title>
<polygon fill="#fb8072" stroke="black" points="1038.51,-252 921.49,-252 921.49,-216 1038.51,-216 1038.51,-252"/>
<text text-anchor="middle" x="980" y="-229.8" font-family="Times,serif" font-size="14.00">BlogsComponent </text>
</g>
<!-- ContentModule&#45;&gt;BlogsComponent  -->
<g id="edge9" class="edge">
<title>ContentModule&#45;&gt;BlogsComponent </title>
<path fill="none" stroke="black" stroke-dasharray="5,2" d="M712.96,-175C803.36,-175 980,-175 980,-175 980,-175 980,-205.98 980,-205.98"/>
<polygon fill="black" stroke="black" points="976.5,-205.98 980,-215.98 983.5,-205.98 976.5,-205.98"/>
</g>
<!-- PresentationsComponent  -->
<g id="node11" class="node">
<title>PresentationsComponent </title>
<polygon fill="#fb8072" stroke="black" points="903.98,-252 744.02,-252 744.02,-216 903.98,-216 903.98,-252"/>
<text text-anchor="middle" x="824" y="-229.8" font-family="Times,serif" font-size="14.00">PresentationsComponent </text>
</g>
<!-- ContentModule&#45;&gt;PresentationsComponent  -->
<g id="edge10" class="edge">
<title>ContentModule&#45;&gt;PresentationsComponent </title>
<path fill="none" stroke="black" stroke-dasharray="5,2" d="M713.18,-181C753.02,-181 801.12,-181 801.12,-181 801.12,-181 801.12,-205.76 801.12,-205.76"/>
<polygon fill="black" stroke="black" points="797.62,-205.76 801.12,-215.76 804.62,-205.76 797.62,-205.76"/>
</g>
<!-- ProjectsComponent  -->
<g id="node12" class="node">
<title>ProjectsComponent </title>
<polygon fill="#fb8072" stroke="black" points="725.93,-252 596.07,-252 596.07,-216 725.93,-216 725.93,-252"/>
<text text-anchor="middle" x="661" y="-229.8" font-family="Times,serif" font-size="14.00">ProjectsComponent </text>
</g>
<!-- ContentModule&#45;&gt;ProjectsComponent  -->
<g id="edge11" class="edge">
<title>ContentModule&#45;&gt;ProjectsComponent </title>
<path fill="none" stroke="black" stroke-dasharray="5,2" d="M661,-187.11C661,-187.11 661,-205.99 661,-205.99"/>
<polygon fill="black" stroke="black" points="657.5,-205.99 661,-215.99 664.5,-205.99 657.5,-205.99"/>
</g>
<!-- QuotesBannerComponent  -->
<g id="node13" class="node">
<title>QuotesBannerComponent </title>
<polygon fill="#fb8072" stroke="black" points="578.42,-252 413.58,-252 413.58,-216 578.42,-216 578.42,-252"/>
<text text-anchor="middle" x="496" y="-229.8" font-family="Times,serif" font-size="14.00">QuotesBannerComponent </text>
</g>
<!-- ContentModule&#45;&gt;QuotesBannerComponent  -->
<g id="edge12" class="edge">
<title>ContentModule&#45;&gt;QuotesBannerComponent </title>
<path fill="none" stroke="black" stroke-dasharray="5,2" d="M609,-181C573.26,-181 532.23,-181 532.23,-181 532.23,-181 532.23,-205.76 532.23,-205.76"/>
<polygon fill="black" stroke="black" points="528.73,-205.76 532.23,-215.76 535.73,-205.76 528.73,-205.76"/>
</g>
<!-- VideosComponent  -->
<g id="node14" class="node">
<title>VideosComponent </title>
<polygon fill="#fb8072" stroke="black" points="395.49,-252 270.51,-252 270.51,-216 395.49,-216 395.49,-252"/>
<text text-anchor="middle" x="333" y="-229.8" font-family="Times,serif" font-size="14.00">VideosComponent </text>
</g>
<!-- ContentModule&#45;&gt;VideosComponent  -->
<g id="edge13" class="edge">
<title>ContentModule&#45;&gt;VideosComponent </title>
<path fill="none" stroke="black" stroke-dasharray="5,2" d="M609.05,-175C525,-175 368.51,-175 368.51,-175 368.51,-175 368.51,-205.98 368.51,-205.98"/>
<polygon fill="black" stroke="black" points="365.01,-205.98 368.51,-215.98 372.01,-205.98 365.01,-205.98"/>
</g>
</g>
</svg>
