<?xml version="1.0" encoding="UTF-8" standalone="no"?>
<!DOCTYPE svg PUBLIC "-//W3C//DTD SVG 1.1//EN"
 "http://www.w3.org/Graphics/SVG/1.1/DTD/svg11.dtd">
<!-- Generated by graphviz version 2.47.0 (20210316.0004)
 -->
<!-- Title: dependencies Pages: 1 -->
<svg width="504pt" height="211pt"
 viewBox="0.00 0.00 504.00 211.00" xmlns="http://www.w3.org/2000/svg" xmlns:xlink="http://www.w3.org/1999/xlink">
<g id="graph0" class="graph" transform="scale(1 1) rotate(0) translate(4 207)">
<title>dependencies</title>
<polygon fill="white" stroke="transparent" points="-4,4 -4,-207 500,-207 500,4 -4,4"/>
<text text-anchor="start" x="227.01" y="-42.4" font-family="Times-12" font-weight="bold" font-size="14.00">Legend</text>
<polygon fill="#ffffb3" stroke="transparent" points="14,-10 14,-30 34,-30 34,-10 14,-10"/>
<text text-anchor="start" x="37.63" y="-15.4" font-family="Times-12" font-size="14.00"> &#160;Declarations</text>
<polygon fill="#8dd3c7" stroke="transparent" points="127,-10 127,-30 147,-30 147,-10 127,-10"/>
<text text-anchor="start" x="150.73" y="-15.4" font-family="Times-12" font-size="14.00"> &#160;Module</text>
<polygon fill="#80b1d3" stroke="transparent" points="213,-10 213,-30 233,-30 233,-10 213,-10"/>
<text text-anchor="start" x="236.78" y="-15.4" font-family="Times-12" font-size="14.00"> &#160;Bootstrap</text>
<polygon fill="#fdb462" stroke="transparent" points="310,-10 310,-30 330,-30 330,-10 310,-10"/>
<text text-anchor="start" x="333.67" y="-15.4" font-family="Times-12" font-size="14.00"> &#160;Providers</text>
<polygon fill="#fb8072" stroke="transparent" points="406,-10 406,-30 426,-30 426,-10 406,-10"/>
<text text-anchor="start" x="429.73" y="-15.4" font-family="Times-12" font-size="14.00"> &#160;Exports</text>
<g id="clust1" class="cluster">
<title>cluster_EditorModule</title>
<polygon fill="none" stroke="black" stroke-dasharray="1,5" points="34,-70 34,-195 462,-195 462,-70 34,-70"/>
</g>
<g id="clust2" class="cluster">
<title>cluster_EditorModule_declarations</title>
<polygon fill="none" stroke="black" points="322,-78 322,-130 454,-130 454,-78 322,-78"/>
</g>
<g id="clust4" class="cluster">
<title>cluster_EditorModule_imports</title>
<polygon fill="none" stroke="black" points="42,-78 42,-130 314,-130 314,-78 42,-78"/>
</g>
<!-- EditorComponent -->
<g id="node1" class="node">
<title>EditorComponent</title>
<polygon fill="#ffffb3" stroke="black" points="446.33,-122 329.67,-122 329.67,-86 446.33,-86 446.33,-122"/>
<text text-anchor="middle" x="388" y="-99.8" font-family="Times,serif" font-size="14.00">EditorComponent</text>
</g>
<!-- EditorModule -->
<g id="node2" class="node">
<title>EditorModule</title>
<polygon fill="#8dd3c7" stroke="black" points="283.05,-187 280.05,-191 259.05,-191 256.05,-187 188.95,-187 188.95,-151 283.05,-151 283.05,-187"/>
<text text-anchor="middle" x="236" y="-164.8" font-family="Times,serif" font-size="14.00">EditorModule</text>
</g>
<!-- EditorComponent&#45;&gt;EditorModule -->
<g id="edge1" class="edge">
<title>EditorComponent&#45;&gt;EditorModule</title>
<path fill="none" stroke="black" d="M388,-122.11C388,-141.34 388,-169 388,-169 388,-169 293.26,-169 293.26,-169"/>
<polygon fill="black" stroke="black" points="293.26,-165.5 283.26,-169 293.26,-172.5 293.26,-165.5"/>
</g>
<!-- EditorRoutingModule -->
<g id="node3" class="node">
<title>EditorRoutingModule</title>
<polygon fill="#8dd3c7" stroke="black" points="305.66,-122 302.66,-126 281.66,-126 278.66,-122 166.34,-122 166.34,-86 305.66,-86 305.66,-122"/>
<text text-anchor="middle" x="236" y="-99.8" font-family="Times,serif" font-size="14.00">EditorRoutingModule</text>
</g>
<!-- EditorRoutingModule&#45;&gt;EditorModule -->
<g id="edge2" class="edge">
<title>EditorRoutingModule&#45;&gt;EditorModule</title>
<path fill="none" stroke="black" d="M236,-122.11C236,-122.11 236,-140.99 236,-140.99"/>
<polygon fill="black" stroke="black" points="232.5,-140.99 236,-150.99 239.5,-140.99 232.5,-140.99"/>
</g>
<!-- SharedModule -->
<g id="node4" class="node">
<title>SharedModule</title>
<polygon fill="#8dd3c7" stroke="black" points="148.42,-122 145.42,-126 124.42,-126 121.42,-122 49.58,-122 49.58,-86 148.42,-86 148.42,-122"/>
<text text-anchor="middle" x="99" y="-99.8" font-family="Times,serif" font-size="14.00">SharedModule</text>
</g>
<!-- SharedModule&#45;&gt;EditorModule -->
<g id="edge3" class="edge">
<title>SharedModule&#45;&gt;EditorModule</title>
<path fill="none" stroke="black" d="M99,-122.11C99,-141.34 99,-169 99,-169 99,-169 178.85,-169 178.85,-169"/>
<polygon fill="black" stroke="black" points="178.85,-172.5 188.85,-169 178.85,-165.5 178.85,-172.5"/>
</g>
</g>
</svg>
